<svg xmlns="http://www.w3.org/2000/svg" viewBox="0 0 64 64" fill="none">
  <!-- Gear -->
  <path d="M32 8l3 6.5a14 14 0 0 1 4.9 2l6.3-3.5 4.8 4.8-3.5 6.3a14 14 0 0 1 2 4.9L56 32l-6.5 3a14 14 0 0 1-2 4.9l3.5 6.3-4.8 4.8-6.3-3.5a14 14 0 0 1-4.9 2L32 56l-3-6.5a14 14 0 0 1-4.9-2l-6.3 3.5-4.8-4.8 3.5-6.3a14 14 0 0 1-2-4.9L8 32l6.5-3a14 14 0 0 1 2-4.9l-3.5-6.3 4.8-4.8 6.3 3.5a14 14 0 0 1 4.9-2L32 8z" stroke="#4a9eff" stroke-width="2" fill="#1a2a4a" opacity="0.85"/>
  <!-- Water drop -->
  <path d="M32 20c-6 8-10 13-10 18a10 10 0 0 0 20 0c0-5-4-10-10-18z" fill="#4a9eff"/>
  <ellipse cx="29" cy="36" rx="3" ry="4" fill="#8ecfff" opacity="0.6"/>
</svg>
